<svg id="hospital_2" data-name="hospital 2" xmlns="http://www.w3.org/2000/svg" width="17.149" height="20" viewBox="0 0 17.149 20">
  <path id="Path_1534" data-name="Path 1534" d="M114.287,67.469a5.761,5.761,0,1,0,5.761,5.761A5.767,5.767,0,0,0,114.287,67.469Zm2.563,8.4h-1.172v-2.05H112.9v2.05h-1.172V70.594H112.9v2.05h2.781v-2.05h1.172Z" transform="translate(-105.712 -64.833)" fill="#0073bb"/>
  <path id="Path_1535" data-name="Path 1535" d="M45.065,0a8.571,8.571,0,0,0-5.6,15.061c1.226,1.071,4.47,3.938,5.6,4.939,1.132-1,4.376-3.868,5.6-4.939A8.571,8.571,0,0,0,45.065,0Zm0,15.329A6.933,6.933,0,1,1,52,8.4,6.94,6.94,0,0,1,45.065,15.329Z" transform="translate(-36.49)" fill="#0073bb"/>
</svg>
